<mxfile host="65bd71144e">
    <diagram id="2wSY_R_ZQlQ9wFU60Bvg" name="Page-1">
        <mxGraphModel dx="2409" dy="1681" grid="1" gridSize="10" guides="1" tooltips="1" connect="1" arrows="1" fold="1" page="1" pageScale="1" pageWidth="827" pageHeight="1169" math="0" shadow="0">
            <root>
                <mxCell id="0"/>
                <mxCell id="1" parent="0"/>
                <mxCell id="3" value="" style="shape=image;verticalLabelPosition=bottom;labelBackgroundColor=#ffffff;verticalAlign=top;aspect=fixed;imageAspect=0;image=data:image/png,iVBORw0KGgoAAAANSUhEUgAABHcAAAJPCAYAAAD2VjjhAAAAAXNSR0IArs4c6QAAAARnQU1BAACxjwv8YQUAAAAJcEhZcwAAEnQAABJ0Ad5mH3gAAE3dSURBVHhe7d07aFx32j/wx9kuRfi/EisSs8Gz2WIb2U0I6IKSOK2MjYsF7SwkpHAhBC4csIK2XrEKJIVBqHAREogi2MLEWG0cR+gCSxpJzRbrSCQ4wUF6X1KkS/yfc+Y30pmxZOtq68ifD5z4XGbOzBxN5vKd5/mdEw9q4hCt/e//pTkAAACA8mj/n/+X5o62Qw93AAAAADg8z6V/AQAAACgh4Q4AAABAiQl3AAAAAEpMuAMAAABQYsIdAAAAgBIT7gAAAACUmHAHAAAAoMSEOwAAAAAlJtwBAAAAKDHhDgAAAECJCXcAAAAASky4AwAAAFBiwh0AAACAEhPuAAAAAJSYcAcAAACgxIQ7AAAAACUm3AEAAAAoMeEOAAAAQImdeFCT5gGAEloa74tLk2mhyUBcnx2K02kJAPZi+/eZIu85B2Vt+mr0j85HdWImLp/J1izHtd7BmHSMeQSVOwBwbE3Fpd6rcfN+WgQAjrz2/g9ieqQ7Jgf7oqs3mwQ7PJ5wBwCOi67hmJ6diYXalH0orJuPlR/TLADsR+F9pjFtvt9wkLKAp3icFwQ7PIZwBwCOoXsr82luIM5mJd2L4+nXv9o0vlzfFOtx873Gr4LjsZTWNl02TdcW07aCrGy89XJdhUqhze2Ffd+/FVfSZRv73PJyTbJy9Pp1rkyvp3WZzfX1aSdVSsXHXJjeuxVr6RLF+7g5Fe/b1vcna1to2tcWj7Xp9tPfYe+Pv3Cb22wHeBqaXg9bXlOL7yetr2HZVHwd2/p9JpsKr/cb+y++BxRea4uv75kt3uOyqXG7j39N3vn720PvC60edZ2N9+qawn0uHr+tPHzMCsdlm8eeTdl+d3S8k23ff1r+3ltehkMh3AGA42JhLPrTB6h8bITqxOYvfWeGNn9dnfy0/iFt8fMYXchWdMfIjfrl8g9rg1PZyiZZaXjrh7LNAOkpyD88ZmXqRfMxevFxAc+9WMkf8yP8uBpzaXZT1uK2/Qf9J6/+xaV1DIy50Qs+PANHyNfxj4tjTa+pk4ON1+n1+PZuvqrJzl7Haq/3Y9sEJjVr0/9M728PW/tuNc2VxXJc2+J9+WH194VsrJ5m2Xvj40OhRyseb+8/R5VwBwCOq8nBpl8L2/vfj5GubK72Ie1ft+LmJ/UPiz0j78f5jtrM/Vvxcfqw1jPyxUYp+PVqfd3c6OeFcGPzQ3k24OPCxEB94QlZ+lf6slBoEajfz/n46t+P+HB5fyVW8pls7ILNx9bkzNDGY8+nG8PRk2+Yitv7+nB8gJqCuXQ/099g7su5bb/wADxRC/NRyd4jml5LG6/TbXH+w7QtTRvvNw+9jtVfs4uX2VbtvewfDwUcmxo/TNTf5ybicbt72pbGW3/I2MbG+0J6X86P1xfpfb/2keCT2ueBxvvbxt9i87L1gZsbHnG8H/f+03EuPsqvu3lsG58pPupvS2s4DMIdADguimMhNMKWhbH4x8YvabUP0sPpA93kWP3DWe06f2982NqoWOmON1/b/AB2uq8R3KzGt42qmPtz8VX6cFd5MV/zCFnVSyrLbvkFt1nhcvm0XRVO4dfe1mqlmrmVe/WZLaz9++sUCp2Kk/marbS0ez3iPme/VDYu1/orZtHmoJgXtv01eeePv/jLc/0X2fzyjV92F1Zj+yMA8ATV3mP+1ggNOnrizRQ0NF6nW9uAtn8d3Xx9rF9mIK5/eC7a821F63FzLHvN7o6Rka1+dNh8/6i8/LigofU1eavqzR2+vxXeq7bf1xYWx+uPtzq8EdJsZ/N9IbVj59qi961Utbur94btj7f3n6NLuAMAx9GZNzZ+MXtU2FG0m1L1zZDk9ejNqn4ORbEMvOgxrVV3V7apXFmP2S/TL7Zv9WzxpSCTlZs3fiVNv0oWfuF8srZ7/I9riSuEcABH1eL4ZgtR3ka8g6qcDVNxqTgmTbLyr3o7Vl6R+nJaWbSrHyZa1W5zu7Fzdm3r+9/sTmrHGojrQ49/FzrcVunN++v95+gS7gDAcbR4Z4sy7sYvmjXVgXr4U6jsaX/t9ZaS+bqlmUav/6n4Yx7kLMdn6QP59iFJ0WZ596ODks3LbYwPtOWvgCej0vgFc4sztyxs+WtuTaGUvFiZ1KwRHGXBzgf1drUtx+Cp26p9bStblcg/bKePv3YEKo2z0xTK4jemdL8BnraFr2O28WW/0DbUUzm5+YNCFuwMddZmth6Dp67wPtKoTG2MH7dhPiYna+9NxYrUFhstvRvvZ4+yk9fkHb6/Fd6rNt4rtv0hIpmcyt/HqxM7O0vWZpVtsYV480eNR1esttr+eHv/ObqEOwBwXBTLvjcGX6x9+PpL9qE5K39vDDBZ+9A2NBR/Sx9W50b/Wf+A3HEu3k0fOrdqN+oZ+WvtA2bWsrTZ/79xuY3bq5dp723gxs0y8I1fc7f8MNoW599JHzZ3WuqenSGk5T4WH1t9P8XrblFufuh2+viz8ZPeTpVZhfuZpv0NmglwkLZ6LR2Id4vhSzY+XP76tcO21Y39bBXQ1N7zhrcK+Ovtts3vZ4+zxWty9Y0dBS0PKbxXbbzvvFJ5/I8j1YmWsXAe4cxfN8fX2aIVuPrONj98bGn74+395+gS7gDAsZX98lb/FS0b16Dx4bTxobb5A1o92Dg9VPiFckP917knPxBi7f5vV4WTDQp5KO1SnXG5ab+1+/DU2rIe8fiz+/nIKiCAI6BrOK43vadk70v1SpT2/g+aKh6zSsidt2Vl70sPV7RsnCDgUaoTe3w/q933vMLoAGSVPI/d125vrz5A9cPHMDvmrQMm71bxeHv/OapOPKhJ8wAAj9Go3Nn8gF6UnUo9+1Uya0Pa3wfJA9ao3Nko/y969GMCYHca7wV5iLFtSA0cJJU7AAAAACUm3AEAAAAoMW1ZAAAAHBhtWfDkCXcAAAAASkxbFgAAAECJCXcAAAAASky4AwAAAFBiwh0AAACAEhPuAAAAAJSYcAcAAACgxIQ7AAAAACUm3AEAAAAoMeEOAAAAQIkJdwAAAABKTLgDAAAAUGLCHQAAAIASE+4AAAAAlNiJBzVp/lCs/e//pTkAAACA8mj/n/+X5o42lTsAAAAAJXbolTsAAAAAHB6VOwAAAAAlJtwBAAAAKDHhDgAAAECJCXcAAAAASky4AwAAAFBiwh0AAACAEhPuAAAAAJSYcAcAAACgxIQ7AAAAACUm3AEAAAAoMeEOAAAAQImdeFCT5o+MX375JX744Yf4+eef47fffktrYXeee+65eOGFF+Kll16K559/Pq0FAACA4+XIhTtZsPOf//wn/vCHP0RbW1v87ne/S1tgd3799ddYX1+P77//Pv785z8LeAAAADiWjly489///jevtvj973+f1sD+/PTTT3kV2J/+9Ke0BgAAAI6PIzfmTvYlPKvYgYOSPZ+y5xUAAAAcR0cu3MnG2NGKxUHKnk/GbgIAAOC4crYsAAAAgBIT7gAAAACUmHAHAAAAoMSEOwAAAAAlJtwBAAAAKDHhDgAAAECJCXcAAAAASky4AwAAAFBiwh0AAACAEjum4c5yXOvti67CdGV6PW2jDJbG/c0AAABgJ45nuLN4J1ZGvoiF2Zk0TURl9IKw4Mhbj5vv1cO4S5NpFQAAAPBIxzPcOTMUH/W3pYVMZ/xtpDvmvpyLtbSGo2dt+p8xGsMxPftFjHSllRwf92/FlayS7r1b/j8EANihrKJ9oyPB5yhgGyce1KT5I+Gbb76JV199NS0dnLXpq9G/8nYsDHWmNfUXymKFSHViJi6fSQuL49E1OJUWmuWXe7H2RfXi1/HmjQ/ifEfakMmvF3F9dihO5yuyFrHB2LyZ7hi58XasXCyua8i21fb3Y20fn5yK6Q/PRXva0rg/+W3HNvetazi/zr3sccVE02Pd1naPM+0ru/382I3O19fXNB2nXFZxcyFGF9JiTXViImLwEY+xeMweUt/fV2990RLS7d1hPa/YqfrfdOWVgZi82/LcBgBga9ln9Zk30uf69Jn7lR1+zgeeKc/GgMr3b8U/RiNG/lJ4Eaytu10ptG5N1L50Dl6Nm/fT9txAXN9o7aq3d1XTlujoiTe75uOrfze3ei3NTEVU36gHO3mlwmBTi9j0yKnahs64vLHcnSUhaft2ocdyXCsGMGeG0uXrFS5Z2JIv7+UL82P2lQc7X74e0/llatON4VgZ7Itri/Wr18Or9CbTuEztWO7+MXKcNaqy/taXVgAA8HjZZ/WNIKctet+qfa6+u6J6B3jI8Q13Gi0g2bRVhU3HubhcrAo580ZUYz5WfkzLj9UW598ZaGn1Wo7bk90bIdLSv8ZirjrRVH3S3j+063BjaXwwJqvDT6FVaTk+y0Kx4UJoVDtu71YjJmeW88W16U9jMqvyKf56UHsTaq7s4ZnWCFeLzyMAAAAOzPENdzrOxUeNSpLZ9yPG+qJrvB5IbCgGQE2tUzuUBUILX8dso9pn8U5Mdr0evXl4sx7f3o2o9u2zZHJxPC5NDsT1oZ60YocmBzd7c2vTngaTvr8SKzEfoxc395NNxVa2eyvz0fNWjy/tbCsLOWPkfRVbAAD7kf9gNh/Vd/xgBjzs2WjLyqpshoejZ/LTjbarfGCyvKKnEQAVWq52rDPOVjdbs7KWrIN9sa23Y1UnGuP37MJGG1RtujEcMXqh0Eq1G62taWnS58tOZOHk3eH4+wGNnQQA8GyqfS+4mP1g9oUKeWBLz0i40yprn8ryj/2P/3L6L8MReWtWts+BOLvxYtsWf3xls31pL2bzdqyJ/b+A5+MDpfnd6KhEJabi9iNCoZMVZyFje/kYVAtj0d+o/MrGjkrLewsbAQCeNekELS3DPQAUHcNwJxtFfjyW0lJdbd1YNv7N2ynMORmVroiV7zZblfJxbdL8rmTBSXwds9N3ai+4aSDlJAt+eiYHm1qi1qbHWwZt3kbtC/Bo3o51ABUy9+fiq4XuqLyYlncsq0zKOryaj2fxMbT3vx3V7Mt6seVtcdwXd3Knh1oqvrLBtrMxmmrzfnUCAHiczWBH5TzwKMcw3MlGkV+NS41KgXyqn1a7ONJ81qaVtSo1LnO7by9tWZns9mq7Gl1tPhtXJhv3J7VENW6n/8tTaUyex9tTO1ZDccydvIRzb2OeZF/Or1enmo5n/8obhX1lZ8WqHbvi7Q1GoYIJAADYi/zkJdlMy3iafkgFWp14UJPmj4RvvvkmXn311bRUDhunC9/Lqch5Isr4vAIAAICdeEbH3DlI6zH7pTNGAQAAAE+HcGe/Fj+P0YWBeNfgZgAAAMBTINzZs2xws2x8mdUYubGPsXEAAAAA9kG4s2fZQMLZGYD2fzp1AAAAgL0S7gAAAACUmHAHAAAAoMSEOwAAAAAlJtwBAAAAKLEjF+4899xz8euvv6Yl2L/s+ZQ9rwAAAOA4OnLfeF944YVYX19PS7B/2fMpe14BAADAcXTkwp2XXnopvv/++/jpp59U8LAv2fMnex5lz6fseQUAAADH0YkHNWn+yPjll1/ihx9+iJ9//jl+++23tBZ2J2vFyip2smDn+eefT2sBAADgeDmS4Q7wjFkcj67BqYjqRCwMdaaVT8j9W3Hl4mq8OzsUp9MqAACAMjHKLPDULc1MRXViIqqTd2IprQMAAGBnhDvA4csqc3r7NqYr08VB05fj9mR3VF7sjLPVqbi9mFbnluNa73gsZdU1jeu/dyvW0tbHb49Ym77adNvXNvafXbe27uJYzMVUXNq4zNW4eT9dBAAAoAS0ZQGHK2+5Wo2RGx/E+Y60rijb/smpmP7wXMT01ehfebvQmpUFMIMxGQNxPW+bqi/HxExcPrOD7fltR9rWWG65L9qyAACAklO5Axyi9bj5yVT0jLy/dbBTk7Vk9bzVE+21+fbXXo+eh1qzumPkRiN4yap7Ila+K1b+bLe9cdt/3QxtzgzF9ep8fPXv4vUBAADKTbgDHKJ7sbIQUXm5LS23qrdkvfla2t7RE292tbZm7c/2tw0AAHA8CHeAQ3QyKl1pdiuLd2Iy5mP0YmO8mwsxuhAxObOcLrB/zVU+6/Ht3TQLAABwTAh3gEPUFr1vdcfk4PiWZ8Fa+261fvrz2ZnNaWIg4kDOmlW/7bnRzzf3tfh5jC4MxLv9hWqejkpU4mCrhQAAAJ4k4Q5wqNr7P4jpkdXC2agaZ8taj9kv56Pa1xg8OTnzRlQPKGx56LbzwZRbB07ujMsTAzE52Lh/zpYFAACUi7NlAQAAAJSYyh0AAACAEhPuAAAAAJSYcAcAAACgxIQ7AAAAACUm3AEAAAAoMeEOAAAAQIkJdwAAAABKTLgDAAAAUGLCHQAAAIASE+4AAAAAlJhwBwAAAKDEhDvA8bY4Hl29fRvTtcW0vuH+rbjSOx5LaREAAKBshDvA8ZUFO4MR12dnYiGbJgZicvBq3LyftgMAABwDJx7UpHmAw5GHLFNpIaJn5Iv4qL8tLS3Htd7BmExLUZ2IhaHOtJBtuxNnb5yKjy+OxVy2qms4pj88F+2P3b4eN9+7ECvvzMTlM/mFc0vjffFxJbv9e823u6E7Rm58EOc70iIAAMARp3IHOFx5sLMaIzdS9Uxt2gx2srDlTpxtVNbMTkR1crCldWoqLl1cjXcb2xfG4rMdbb8XKwvdUXkxv9CGk5XumPtyLtaiMy5n17kxHD0xsFndMyvYAQAAykW4Axyi9bj5yVT0jLy/bWByemgoTqf5iM44W41Y+W49LWeySprGZXax/f5KrMSp+GPL7ba/fCrNAQAAHA/CHeAQZdUzEZWXNyt1HtIy4PGlh/uk9qajEpVYjW9bxtdZ+2414pVKausCAAAoP+EOcIhORqUrzW4lO1PV4FRUJxotUTNxvZq27Vt22/Ox8mNaTO6tzEdP5WRaAgAAKD/hDnCI2qL3re6YHHzUqcYL4+Isjh9c5c5Wt53vfyDeLYz5U6/wmYrbradIBwAAKAnhDnCo2vs/iOmR1bhUaL26Mp3GzOk4F+9W52P0Ytr2yakYObDKnS1uOz8tenGMn0xnXM5PkZ4u0+tU6QAAQLk4FToAAABAiancAQAAACgx4Q4AAABAiQl3AAAAAEpMuAMAAABQYsIdAAAAgBIT7gAAAACUmHAHAAAAoMSEOwAAAAAlJtwBAAAAKDHhDgAAAECJCXcAAAAASky4AzwZi+PR1duXpqtx835a/yTdvxVXesdjKS0CAAAcB8Id4AlYjmuDU1GdmImF2Wz6IM53pE3Zto3QpzaNL6f1AAAA7IRwBzh891diJQbi7Jm0vCELdgYjNkKfiahODsaV6fW0HQAAgMcR7gCH78fVmEuzRWvTn8ZkdSIub4Q+nXF5YiDmvpyLtXw5C3+aW7iWxvsK4U+2fTyW8narVPnz3q103aTYDnZxbMv7AQAAUGbCHeDQrE1frYcqg1O1pam41AhZUuvVvZX56KmczOc3vHgqeha+jtkdj8lT2+/F1Xi3UfmzMBafLaZNWegzuBojN1Jl0I3h6EmbAAAAjgvhDnBo2vs/qIcqEwO1pYG4ngcwtWmos7a8Ht/ejai83JZfdkNHJSppdme6Y+TGUJzO5zvjbDVi5bt6Zc/Sv8YiRt4vjO8DAABw/Ah3gKekLf74ymYQsyEfn+dU/FEgAwAAsCPCHeCpOVnpjrmVe2kpycbn6ToVLc1aAAAAbEO4Azw17a+9Hj2Tg3GtMUZO45Tp75yL9rQmYj5WfqzPZWP4XJqsz+9EHh4VB2c2oDIAAHAMCXeAp6fjXHx0YzhWBtNAy+m06K1nz5pM2/tX3o7r1bRpB9r734+RGIv+fN+fRuXGROzi6gAAAKVw4kFNmgcAAACgZFTuAAAAAJSYcAcAAACgxIQ7AAAAACUm3AEAAAAoMeEOAAAAQIkJdwAAAABKTLgDAAAAUGLCHQAAAIASE+4AAAAAlJhwBwAAAKDEhDsAAAAAJSbcAZ6+xfHo6u2LrvHltAIAAICdEu4AT93SzFRUJyaiOnknltI6AAAAdka4Axyi9bj53tW4eX85rmWVOfk03hLgLMftye6ovNgZZ6tTcXsxrW64fyuubFx3q30U990XV6bX03oAAIBng3AHOGTzMXrx06jcmImF2Zm4Xp2KS8X2q8U7Mdn1evR2RJysdMfkTLE1az1ujo1FjHyRX3dhYqC2rjtGbgzF6cb29wZjpbF9diIqoxfiWmtABAAAcIwJd4BDV534IM531OdP9w1E3F2Jtfpi3pLV81ZPtNfm2197PXqKrVn35+Krhe5487W2+vKZN6Ia87HyY30x3x7D8ff+tD06428jrQERAADA8SbcAZ68hdW4l8/UW7I2wpuOnnizq9Ca1VGJSszHV/9OrVZZlU8MxNkz9cX4cTXmFsaiv9CW1T86nzYCAAA8G048qEnzAAcsa5u6ECvvzMTlRiCTnRnrk1Mx/eG5aM/mB6fShoLqRCwMddZm6tcfXaivzlQnttlXWgUAAPCsUbkDPEHLcW1wsw1r7bvVepCTj5eTpmxcnUZr1uLnMRrDMV3YvhHsZLI2rYWx+IdBlAEAgGeYyh3gED1cedMz8kV8lI+Rs0VVTy47+9VgRF6h8/D1M03VO+nyk2kp07wdAADgeBPuAIdouwBnh7Zqu8pbuSKuzzbOmAUAAPBs05YFHFl521aL7Oxa0XUqTqZlAACAZ51wBziy2vvfj5FoPhvWpbvDBlAGAAAo0JYFAAAAUGIqdwAAAABKTLgDAAAAUGLCHQAAAIASE+4AAAAAlJhwBwAAAKDEhDsAAAAAJSbcAQAAACgx4Q4AAABAiQl3gKdoOa71Xo2b99Mix8iT+tuux833+qKrN03jy2n9k7U03hdXptfTEgAAPFnCHeDQ7f2Lb8sX9zRdW0ybD0h2/w5jvwfi/q24kj3u927FWlr15NSP/5E8Lsna9D9jNIZjenYmFrJpqDNtAQCAZ4dwBzjyqhPpi3uaLp9JGw7EctyeHIjrEwMxOfN0qj4eZe3fX0eMTMRIfB2zKpwecm9lPnre6on2tAwAAM8i4Q5waNamr+YVMZcmI+ZGL2xW37S2zvyYqlMOukJlcTy/rcb9yKaHKogW78Rk16k4eeaNqE7eiaW0uqF43Y2pcP+bt48/dP3Hy9qXCvtuevzrMfvlfFRe7ozetyK++nfxvmdVNVnbU/H6xdt/3PbM9rddr2a6EKMLEZODm5fZdQXWo/622d+nsW1PLVzr8e3dNLuFRkXWVvvP/27F52FeIbV5fLLt2WMt7qO5gqm5qix7jgMAwNMi3AEOTXv/B3mlzfVqRM/IF5vVN02tM/MxOrga7+bbJqK6MBafHWQb0ORg9K+8Xb/dG8MRo/9s+pK/NDOVKj9ORqVrKm4Xb7v2hf8foxEjN+r3O3sc0TUc0437vzge/aOn4np6XNMjq3FpV+FUFq4Mxkrx2Hx4brMK5f5cfLUwEGfP1I7ly6di7su5ln3Xjt3FT6OS378vYqR2/z9uCl8etT0LJ4q3XdseY9GfAo/TQ43rNFdOfdTflm/fmeLftr7/fzRuPwtTatsax3Zh4lTtvu40HGuEUvXwaTM43AxwsnDm0t3Ndq3pkdqffsf7r8v2+3GlfnymR7pj8pNi+FW77Vcm6ve9NuXPDQAAeEqEO8BT1l37gj8Up/P5zjhb+5K88l1zdUixcmTXFR7FMKajJ97smo+VH+uL9Zas7njztSywaIvet2pf4AutWVlL1FzX69HbUV8+3TcQsbAa9+qLeTBUnWjc9yzMejuqCztvn1qb/jQma/fv79sEJvntV9+o7z+rLNpi39WJD+J8fv/q939upXHv6rbdvvh5jC4MxLsbt90W54eHo2eL6qW9K/5t0+2ngKrebvZ+um81Z/6ah09N4dq2OuNyHqrUw6fN4LDxWJfjs9H5qL6zGZS197+/i/0n1YmNMKv9tdejp/G3v38rPs5a+YzvAwDAESHcAY685jF3Gl/g924jPMpbsjbDm/wLfCHcyKplohCoZGFONMKW1BLUHDwNxm66c7LxYuKVyjbjxdRbsqp9jQAhC77mW1qz9ilrR0uzT0J+PJPssTe16qUqnIPTHZUX0ywAABxzwh3gmVN5uV6NkYc1C2PR3wgYLo7FXBSqO148FT15a1N9+6UtqjVaB3veTfh0stKd5raQt2Q1h0f52EUPtWbtQ6EKKffjau3xH56171abwqymVr00Hdxg2cUKrcy9WDnQ8AgAAI4O4Q5w6LIQ40BDiT3KT5udxrBpVN60hjPZ2CmN1qylf41FNAUQmy1YG21cg7sbx6WoXik0uPWpxrOgJWspK9y3bMygnl20fT1S1uYVLWPwfDIVPSN/bXqMf3xl83jsT2qVSpVIWYvbXMv4Rwen3t5XHCOn0QL3t2J4dHclbV+Oa3mwt0MdlagUQsB8fB8DKgMA8BQJd4BDl493kg3W26iQaT1b1mM0tz61nrXoMQqVOfXBj1NAUxisuCgfVye1Zp3+SzYAc7F1KJs2w5xswOh8EOXi9t0MqNxxLj66MRwrxceXrr850HNBGjPoYFqzsnFrJqKy8fjqAwS3Dph8emgiqpODG/dvd2fL2qx6ylrWYqJQmXNmKA2i3NieTXsPylplA0Jff6Xlb18YrLr5OflpVCaGoydte7zasctOnZ/+btmA3dmAywAA8LSceFCT5gGOl+xU25+ciuniGah2ITsNdna2pGLgka27FBMtZ/wCAAB4elTuAGyp3rbVLDu7VkRP5UkOQwwAAPBowh2ALdVPDd7cljUYKyPNlTwAAABPm7YsAAAAgBJTuQMAAABQYsIdAAAAgBIT7gAAAACUmHAHAAAAoMSEOwAAAAAlJtwBAAAAKDHhDgAAAECJCXcAAAAASky4AwAAAFBiwh0AAACAEhPuAAAAAJSYcAcAAACgxIQ7AAAAACUm3AEAAAAoMeEOAAAAQImdeFCT5g/F2v/+X5oDAAAAKI/2//l/ae5oO/RwBwAAAIDDoy0LAAAAoMSEOwAAAAAlJtwBAAAAKDHhDgAAAECJCXcAAAAASky4AwAAAFBiwh0AAACAEhPuAAAAAJSYcAcAAACgxIQ7AAAAACUm3AEAAAAosRMPatL8kfHLL7/EDz/8ED///HP89ttvaS3sznPPPRcvvPBCvPTSS/H888+ntQAAAHC8HLlwJwt2/vOf/8Qf/vCHaGtri9/97ndpC+zOr7/+Guvr6/H999/Hn//8ZwEPAAAAx9KRC3f++9//5tUWv//979Ma2J+ffvoprwL705/+lNYAAADA8XHkxtzJvoRnFTtwULLnU/a8AgAAgOPoyIU72Rg7WrE4SNnzydhNAAAAHFfOlgUAAABQYsIdAAAAgBIT7gAAAACUmHAHAAAAoMSEOwAAAAAlJtwBAAAAKDHhDgAAAECJCXcAAAAASky4AwAAAFBixzTcWY5rvX3RVZiuTK+nbRxZi+NNf7Ou3vFYSpsAAACArR3PcGfxTqyMfBELszNpmojK6AUBz5G2HjdnTsX0xt9sJq5Xp+LSe7diLV0CAAAAeNjxDHfODMVH/W1pIdMZfxvpjrkv5wQFR1ZbnB86F+1pKXP6L8PRs/B1zN5PKyi3+7fiSlaRJbADANi1pfF6dfu1xbQCoODZGnPnlUpTeNB4gWxMTS+UD7UItVwu/6J6NW62Bg/59YrtRK0tYtl1Hm4b29xWu0q2j9YvwOn+5Le93X1L18kf1/hyfrXHesy+MmvTV5u2PfyGsh433ytcN7/MYx4jz5jac2RsLCrVgbQMAMCO1T6zX7o7ENWutAzQ4tkId+7fin+MRoz8pTOtqKmtu10ptG5NDMTkYGvwMBDXC21CWXtXNW2Jjp54s2s+vvp3c6vX0sxURPWNOJ0t5AHQYFOL2PTIqdqGzri8sdxdu/xE2v5BnO/IrthqOa4N1vbbcGYoXf6LGKm9wFcn6vta+LC58mVHHrOvLNjp//L1zXapG8OxMlgMeLIQ50KMvtJ4DLWpdix3/xgftvbvr2Ou6/Xo3eHlObrWpv8ZozEcf+tLKwAA2KH6d4HqO3+NSloD0Or4hjuNFpBsuvh1vHmjJVToOBeXi61bZ96IaszHyo9p+bHa4vw7Ay2tXstxe7J7I0Ra+tdYzFUnmlrE2vuHdhxuNCyND8ZkdTgPX56s5fgsC8WGC6FR7bi9W42YnKlXBq1NfxqTXcMxPVQIzs4MxeUzaX6vFsejf3S+9ia2h8CKo6URrhafRwAA7Ej9u8DE/j9fA8fa8Q13Os7FR41Kktn3I8b6Hm5VKgZAvbUXzbR6x7JAqDgmzOKdmNyoNFmPb+9GVPsKocdeZCWYkwNxfagnrdihycH0uOrTngaTvr8SKzEfoxc395NNlwoH6t7KfPS81XOgX9rztrLB1Ri5MeNN7BjIQs4YeX/XoSYAwDOv9n3l4/y7wD6/UwDH3jMy5k5bnB8ejp7JTzfarvIAIa/oaQRAhZarHeuMs9XN1qysJetgK01SCebEUL3Nazc22qBq043hiNELW4yVsxOtrWlpOpQ3mPrYPZfuDsf0Ltq3OMLy/vDh+HvTAOcAADxeGrNwL98FgGfOszWg8oasfSrLP/YfIGRndIq8NSvb50Cc3ag0aYs/vrLZvrQXswdVgpmPD5Tmd6OjEpWYituPCIVOVg7qLGRZsJPG7tnL2EEcSfkYVAtj0d+o/MrGjkrLewsbAQCeEffn4quFrCA/fY7KxrlsLDv7KNDiGIY7WUhQPFtVpp56z1XfTmHOyah0Rax8t9mqlPeypvldyYKT+Dpmp+/EZGMg5SQ/lffkYFNL1Nr0+M7OFlX7Ajx6UCWY+RtDd1ReTMs7llUmZW8gzcez+Bja+9+OavZlvdjytji++y/u+X1UcnrcnB5qqfjKBtvOxmiqzWu5AwB4hKZhJrKpcAIUP4YCLY5huNMWvW+txqVGpUBKub9664tCK1G9TStrVWpc5nbfXtqyMtnt1XY1utp8Nq5M9oKcWqIat9P/5akdn/1pT+1YDcUxdy7ufcyT7Mv59epU0/HsX3mjsK/srFi1Y1e8vcEoVDDt0I+rMRfNt7Mx7fS07gAAAPAMOvGgJs0fCd988028+uqraakcNk4XLkE/ssr4vAIAAICdeEbH3DlI6zH75cGfMQoAAABgJ4Q7+7X4eYwuDMS7zgYEAAAAPAXCnT1bjmvZeDCDqzFyw+kJAQAAgKdDuLNn2UDC2aj1+z+dOgAAAMBeCXcAAAAASky4AwAAAFBiwh0AAACAEhPuAAAAAJTYkQt3nnvuufj111/TEuxf9nzKnlcAAABwHB25b7wvvPBCrK+vpyXYv+z5lD2vAAAA4Dg6cuHOSy+9FN9//3389NNPKnjYl+z5kz2PsudT9rwCAACA4+jEg5o0f2T88ssv8cMPP8TPP/8cv/32W1oLu5O1YmUVO1mw8/zzz6e1HEmL49E1OBVRnYiFoc608gm5fyuuXFyNd2eH4nRaBQAAUCZHMtwBni1L431xu28iYvBOnH3SIYtwBwAAKDmjzAKHL6vM6e3bmK5MF8fVWo7bk91RebEzzlan4vZiWp1bjmu947GUBTCN6793K9bS1sdvj1ibvtp029c29p9dt7bu4ljMxVRc2rjM1bh5P10EAACgBFTuAIcrb7lajZEbH8T5jrSuKNv+yamY/vBcxPTV6F95u9CalQUwgzEZA3E9r6ypL8fETFw+s4Pt+W1H2tZYbrkvKncAAICSU7kDHKL1uPnJVPSMvL91sFOzNFPb/lZPtNfm2197PXom78RSfVPSHSM3GsFLVt0TsfJdsfJnu+2N2/7rZmhzZiiuV+fjq387Ix8AAHB8CHeAQ3QvVhYiKi+3peVW9ZasN19L2zt64s2u1tas/dn+tgEAAI4H4Q5wiE5GpSvNbmXxTkzGfIxebIx3cyFGFyImZ5bTBfavucpnPb69m2YBAACOCeEOcIjaovet7pgcHG9ptapb+261fvrz2ZnNaWIg4qHWrL2o3/bc6Oeb+1r8PEYXBuLd/kI1T0clKnGw1UIAAABPknAHOFTt/R/E9Mhq4WxUjbNlrcfsl/NR7WsMnpyceSOqBxS2PHTb+WDKrQMnd8bliYGYHGzcP2fLAgAAysXZsgAAAABKTOUOAAAAQIkJdwAAAABKTLgDAAAAUGLCHQAAAIASE+4AAAAAlJhwBwAAAKDEhDsAAAAAJSbcAQAAACgx4Q4AAABAiQl3AAAAAEpMuAMAAABQYsIdAAAAgBIT7gDH2+J4dPX2bUzXFtP6hvu34krveCylRQAAgLIR7gDHVxbsDEZcn52JhWyaGIjJwatx837aDgAAcAyceFCT5gEORx6yTKWFiJ6RL+Kj/ra0tBzXegdjMi1FdSIWhjrTQrbtTpy9cSo+vjgWc9mqruGY/vBctD92+3rcfO9CrLwzE5fP5BfOLY33xceV7PbvNd/uhu4YufFBnO9IiwAAAEecyh3gcOXBzmqM3EjVM7VpM9jJwpY7cbZRWTM7EdXJwZbWqam4dHE13m1sXxiLz3a0/V6sLHRH5cX8QhtOVrpj7su5WIvOuJxd58Zw9MTAZnXPrGAHAAAoF+EOcIjW4+YnU9Ez8v62gcnpoaE4neYjOuNsNWLlu/W0nMkqaRqX2cX2+yuxEqfijy232/7yqTQHAABwPAh3gEOUVc9EVF7erNR5SMuAx5ce7pPam45KVGI1vm0ZX2ftu9WIVyqprQsAAKD8hDvAIToZla40u5XsTFWDU1GdaLREzcT1atq2b9ltz8fKj2kxubcyHz2Vk2kJAACg/IQ7wCFqi963umNy8FGnGi+Mi7M4fnCVO1vddr7/gXi3MOZPvcJnKm63niIdAACgJIQ7wKFq7/8gpkdW41Kh9erKdBozp+NcvFudj9GLadsnp2LkwCp3trjt/LToxTF+Mp1xOT9FerpMr1OlAwAA5eJU6AAAAAAlpnIHAAAAoMSEOwAAAAAlJtwBAAAAKDHhDgAAAECJCXcAAAAASky4AwAAAFBiwh0AAACAEhPuAAAAAJSYcAcAAACgxIQ7AAAAACUm3AGejMXx6OrtS9PVuHk/rX+S7t+KK73jsZQWAQAAjgPhDvAELMe1wamoTszEwmw2fRDnO9KmbNtG6FObxpfTegAAAHZCuAMcvvsrsRIDcfZMWt6QBTuDERuhz0RUJwfjyvR62g4AAMDjCHeAw/fjasyl2aK16U9jsjoRlzdCn864PDEQc1/OxVq+nIU/zS1cS+N9hfAn2z4eS3m7Var8ee9Wum5SbAe7OLbl/QAAACgz4Q5waNamr9ZDlcGp2tJUXGqELKn16t7KfPRUTubzG148FT0LX8fsjsfkqe334mq826j8WRiLzxbTpiz0GVyNkRupMujGcPSkTQAAAMeFcAc4NO39H9RDlYmB2tJAXM8DmNo01FlbXo9v70ZUXm7LL7uhoxKVNLsz3TFyYyhO5/OdcbYasfJdvbJn6V9jESPvF8b3AQAAOH6EO8BT0hZ/fGUziNmQj89zKv4okAEAANgR4Q7w1JysdMfcyr20lGTj83SdipZmLQAAALYh3AGemvbXXo+eycG41hgjp3HK9HfORXtaEzEfKz/W57IxfC5N1ud3Ig+PioMzG1AZAAA4hoQ7wNPTcS4+ujEcK4NpoOV0WvTWs2dNpu39K2/H9WratAPt/e/HSIxFf77vT6NyYyJ2cXUAAIBSOPGgJs0DAAAAUDIqdwAAAABKTLgDAAAAUGLCHQAAAIASE+4AAAAAlJhwBwAAAKDEhDsAAAAAJSbcAQAAACgx4Q4AAABAiQl3AAAAAEpMuAMAAABQYsIdAAAAgBIT7gAAAACUmHAHePoWx6Orty+6xpfTCgAAAHZKuAM8dUszU1GdmIjq5J1YSusAAADYGeEOcIjW4+Z7V+Pm/eW4llXm5NN4S4CzHLcnu6PyYmecrU7F7cW0uuH+rbiycd2t9lHcd19cmV5P6wEAAJ4Nwh3gkM3H6MVPo3JjJhZmZ+J6dSouFduvFu/EZNfr0dsRcbLSHZMzxdas9bg5NhYx8kV+3YWJgdq67hi5MRSnG9vfG4yVxvbZiaiMXohrrQERAADAMSbcAQ5ddeKDON9Rnz/dNxBxdyXW6ot5S1bPWz3RXptvf+316Cm2Zt2fi68WuuPN19rqy2feiGrMx8qP9cV8ewzH3/vT9uiMv420BkQAAADHm3AHePIWVuNePlNvydoIbzp64s2uQmtWRyUqMR9f/Tu1WmVVPjEQZ8/UF+PH1ZhbGIv+QltW/+h82ggAAPBsOPGgJs0DHLCsbepCrLwzE5cbgUx2ZqxPTsX0h+eiPZsfnEobCqoTsTDUWZupX390ob46U53YZl9pFQAAwLNG5Q7wBC3HtcHNNqy171brQU4+Xk6asnF1Gq1Zi5/HaAzHdGH7RrCTydq0FsbiHwZRBgAAnmEqd4BD9HDlTc/IF/FRPkbOFlU9uezsV4MReYXOw9fPNFXvpMtPpqVM83YAAIDjTbgDHKLtApwd2qrtKm/lirg+2zhjFgAAwLNNWxZwZOVtWy2ys2tF16k4mZYBAACedcId4Mhq738/RqL5bFiX7g4bQBkAAKBAWxYAAABAiancAQAAACgx4Q4AAABAiQl3AAAAAEpMuAMAAABQYsIdAAAAgBIT7gAAAACUmHAHAAAAoMSEOwAAAAAlJtwBnqLluNZ7NW7eT4scI0/qb7seN9/ri67eNI0vp/VP1tJ4X1yZXk9LAADwZAl3gMOzOL75pbtpGo+ldJHDtDZ9teV2tw4bsi/m2fZri2lFkyykKOyjGB5s9fjeuxVraXP51YOTrY/L0bA2/c8YjeGYnp2JhWwa6kxbAADg2SHcAQ7PmaH6F+7ZL2KkK6Jn5Iu0PBSn00UOXVfhi//EqRi92BrwLMftyYG4PjEQkzMtVR/3b8WV3sFY2bjftanvTnPYUdx/Nn14LtrTJg7fvZX56HmrxzEHAOCZJtwBnr4fsxBlu8qX5sqZfbW+nPlrjHTNx1f/Luxj8U5Mdp2Kk2feiOrknaaKoqV/jcVcdSI+6m9La2rODMXlM2n+QLRUBjU9/paWo4e2ZUFV8frFiqjHbc9sf9v1aqYLMboQMTm4eZldH/9H/W2bKp/20sK1Ht/eTbNbaFRkbbX/vKqrWIWVB3mbxyfbnj3W4j6aK5ia/zaXJtNqAAB4CoQ7wFM2H6ODq/FuXvkyEdWFsfhs40t09gW6WDkzEZXRCwfaJrQ0M5UqP05GpWsqbm/sO6voiaj2HWabTxautFQGFSp/1qY/jxhO67PqpxiLfzSFK7Vjd/HTqNxI22v3/+Mdb289tvX996fA4/RQ4zq1YzCRzdenpqDrsYp/25b7n4UptW0j+X2rTXlV1U7b9RqhVD18mqs9J1oDnCycuXR3s6pqeiR2sf+6bL8fV+rHZ3qkOyY/KYZftdt+ZaJ+32vT9WraAAAAT4FwB3jKumtf8BttWp1xtvYleeW7RgAwF1/FcPx9I1DojL9lX7Jb26d2KB+fZWEg3t3YXxbgdMebr2XLbdH71vb73raCY2Es+tP6fNrFgL5r05/GZFfx8TVr7x+K8x1pId2/uZV7abmuOvFBuswuty9+3nIs2uL88HD0tFQv7U/xb5tu/8u5PCBZ+/fXESPvbz6+vKqqGK49SmdczkOVevi02e7XeKzL8dnofFTf2QzK2vvf38X+k0LVVvtrr0fPwmrkR+/+rfg4a+Uzvg8AAEeEcAc4un5cjbmW8KS/9qV9VwrX7x89FdeL4/3kLVmvR28KGPIv8NuEG8VKliatY+7s4gt/Nl5MvFLZfryYvFVoH4/9cbJ2tDT7JLS/fCrN1R/7ZsVNNtWrcA5Od1ReTLMAAHDMCXeAo601PNllgNJ8/eaBnLOWrKbKm4tjMReN6o6sTSv2XCW0Eycr3WluK8txrXZ/otCylbUGHahGJUpDFqal2cOw9t1qU5i1WXGzOR3ceEbzsfJjms3di5UDDY8AAODoEO4AR1c2yPFC6zgzB6U+GG9xPJlsysZOqQc6bXH+nYFsNOFDOxV4vVLo0fuvvJzapu7fin8cZOVOdmyjZQyeT6aiZ+SvhQCsLf74ykEFXKlVKo1hdLpvIOZG/7mHQZR3ot7eVxwjp9EC97dieHR3JW2vB2k7DrY6KlHZCAGzfV81oDIAAE+VcAc4wrKxVeqDKG+277SetWiPsvF8FgbibEulSBY6RKM1KzuV+43hWNk4W9QWrUOtY+48dLavR+g4Fx817b94/TS+UGPbxdV480Ard1qPbX2A4NYBk08PTUR1cnDj/u3ubFnZgM7p/vcORkwUKnOyY5sPotzYnk27G/D4UbI2uuuvtLTkFQarzsfgyQaQzrd/GpWJ4ehJ2x6vduyyU+env03/ytsHX1UFAAC7cOJBTZoHAAAAoGRU7gAAAACUmHAHAAAAoMSEOwAAAAAlJtwBAAAAKDHhDgAAAECJCXcAAAAASky4AwAAAFBiwh0AAACAEhPuAAAAAJSYcAcAAACgxIQ7AAAAACUm3AEAAAAoMeEOAAAAQIkJdwAAAABKTLgDAAAAUGLCHQAAAIASE+4AAAAAlNiJBzVp/lCs/e//pTkAAACA8mj/n/+X5o62Qw93AAAAADg82rIAAAAASky4AwAAAFBiwh0AAACAEhPuAAAAAJSYcAcAAACgxIQ7AAAAACUm3AEAAAAoMeEOAAAAQIkJdwAAAABKTLgDAAAAUGLCHQAAAIASO/GgJs0fGb/88kv88MMP8fPPP8dvv/2W1sLuPPfcc/HCCy/ESy+9FM8//3xaCwAAAMfLkQt3smDnP//5T/zhD3+Itra2+N3vfpe2wO78+uuvsb6+Ht9//338+c9/FvAAAABwLB25cOe///1vXm3x+9//Pq2B/fnpp5/yKrA//elPaQ0AAAAcH0duzJ3sS3hWsQMHJXs+Zc8rAAAAOI6OXLiTjbGjFYuDlD2fjN0EAADAceVsWQAAAAAlJtwBAAAAKDHhDgAAAECJCXcAAAAASky4AwAAAFBiwh0AAACAEhPuAAAAAJSYcAcAAACgxIQ7AAAAACV2TMOd5bjW2xddhenK9HraxlG1Nn216W/WNb6ctgAAAADbOZ7hzuKdWBn5IhZmZ9I0EZXRCwKeI+5evB7Thb9ZdXJQwAMAAACPcTzDnTND8VF/W1rIdMbfRrpj7su5WEtrOHpO95+L9jTf+JvF3RV/s2MhVdO9d8vfEwBgNxbHC9XtV+Pm/bQeoODZGnPnlUohPIhYGm+8SNana4tpQ6bpRXSLy92/FVe2enHNrzceS2nx4Rax7DoPt41tbqtdJdtH65fgdH/y297uvqXr5I9rpxUvj9lXprVdquk45dbj5nuF6+aXecxj5NmRP8fuRCUL6wAA2LnsO8fgaozcqFe3T49EjF4sftcAqHs2wp3ai+I/RiNG/tKZVtTU1t2uFFq3JgZicrA1eBiI6xttQtk0EdW0JTp64s2u+fjq382tXkszUxHVN+J0tpAHQINNLWLTI6dqGzrj8sZy7QtvdSJt/yDOd2RXbLUc1wZr+204M5Qu/0WMdGVXr+9r4cNi5csOPWZfWbDT/2WhXerGcKwMFgOeLMS5EKOvNB5Dbaody90/xhb532w+qu/s4TFxhNSeH5+cqj1/hqI3rQEAYGeW/jUWc9W3Nz4/t/e/Xfs+MhW3H/qxFXjWHd9wJw9WUrXIxa/jzRstoULHubhcbN0680bthXI+Vn5My4/VFuffGWhp9VqO25PdGyFS/cV4oqlFrL1/aGfhRsHS+GBMVofz8OXJWo7PslBsuBCw1I7bu9WIyZl6ZdDa9Kcx2TUc00OF4OzMUFw+k+Z3pVDtc3E13p2d2eN+ODo64/JeQkcAgGfeenx7N6La1/icnVXL174X1OZWvjOWKNDs+IY7Hefio1Q5sjD7fsRY38OtSsUAqLf+QrkrWSC08HXMNqp9Fu/EZNfr0ZuHN60vxnu0OB6XJgfi+lBPWrFD2WDEG49tj2cLu78SKzEfoxc395NNlwoH6t7KfPS81XNAX943q30WZt+I29ntGaMFAIBnXH04iQvx1Vtf5FXxcyv30haAumdkzJ22OD88HD2Tn260XeUvkHlFTyNMKLRc7VhnnK1utmZlLVkH20ZUb8eqTgzV27x2Y6MNqjbdGI4YvbDFWDk70dqalqZipc6h6IzLtfvdUwzPAADgGTM52Bcfp+Ekso6A/MfVysm0FaDu2RpQeUPWPpXlHzsc/+URTv9lOCJvzcr2ORBnN9qI2uKPr2y2L+3FbN6ONbH/1qR8fKA0vxsdlag8pqf3ZMVZyAAA4ODVv09kP9puDvNQ7w6ovFw8MzDAsQx3sl7U1hHka+vGioORnYxKV3Ovaj6uTZrflSw4ia9jdvpOTDYGUk6y4KdncrCpJWptenxnZ4taGIvRvB3rACpk7s/FVwvdUXkxLe9YVpmU/VrQfDyLjyEf1K12X/uLLW+L47uvErp/K641tY6lv9lGmxsAADxbTvcN5MMtbHy2Xvw8RheKPygD1B3DcKctet9ajUuFMWIa/ambrUT1Nq2sValxmdt9e2nLymS3V9vV6Grz2bgy2bg/qSWqcTv9X57acVixp3ashuKYOxfHIkbe31OV0umhmbhenWo6nv0rbxT2lY2TUzt2xdsbjN2/4XRUmo5T9jfLz8BlMN6S2zxNfv/ofB5a9md/X2MpAQA8XnZm2/ysvukzcu1z9vXZfXxHAI6tEw9q0vyR8M0338Srr76alsph43Thgogjq4zPKwAAANiJZ3TMnYO0HrNfHuQZowAAAAB2TrizX6nv9d2NQc4AAAAAnhzhzp4tx7W873U1Rm7oewUAAACeDuHOnmUDCc/Ewuz+T6cOAAAAsFfCHQAAAIASE+4AAAAAlJhwBwAAAKDEhDsAAAAAJXbkwp3nnnsufv3117QE+5c9n7LnFQAAABxHR+4b7wsvvBDr6+tpCfYvez5lzysAAAA4jo5cuPPSSy/F999/Hz/99JMKHvYle/5kz6Ps+ZQ9rwAAAOA4OvGgJs0fGb/88kv88MMP8fPPP8dvv/2W1sLuZK1YWcVOFuw8//zzaS0AAAAcL0cy3AGOifu34srFsYiRL+Kj/rZ81dJ4X1yaHIjrs0NxOl8DAADAfhhlFjg8P67GXFd3xMq9tGI5bt/tjp60BAAAwP4Jd4DD9crr8ebdO7GUzS/eiXjn7ajEanx7P98KAADAPgl3gENWid63VuP2YsTSTMTZM2k1AAAAB0K4Axyate9W83/bX3s9VmbG43a8YZwdAACAAybcAQ5fR0+8eXcqoq+ztnAyKl311QAAAOyfcAc4VD2Vk7X/tsX5D2fi8kZL1nys/JhmAQAA2BfhDgAAAECJCXeAQ3NvZT7NAQAAcFhOPKhJ8wAAAACUjModAAAAgBIT7gAAAACUmHAHAAAAoMSEOwAAAAAlJtwBAAAAKDHhDgAAAECJCXcAAAAASky4AwAAAFBiwh0AAACAEhPuAAAAAJSYcAcAAACgxIQ7AAAAACUm3AEOz/1bcaW3L65Mr6cVEUvjfdHVOx5LaRkAAID9Ee4Ah+fH1Zjr6o5YuZdWLMftu93Rk5YAAADYP+EOcLheeT3evHunXqmzeCfinbejEqvx7f18KwAAAPsk3AEOWSV631qN24sRSzMRZ8+k1QAAABwI4Q5waNa+W83/bX/t9ViZGY/b8UacztcAAABwUIQ7wOHr6Ik3705F9HXWFk5Gpau+GgAAgP0T7gCHqqdysvbftjj/4Uxc3mjJmo+VH9MsAAAA+yLcAQAAACgx4Q5waO6tzKc5AAAADsuJBzVpHgAAAICSUbkDAAAAUGLCHQAAAIASE+4AAAAAlJhwBwAAAKDEhDsAAAAAJSbcAQAAACgx4Q4AAABAiQl3AAAAAEpMuAMAAABQYsIdAAAAgBIT7gAAAACUmHAHAAAAoMSEOwAAAAAlJtwBAAAAKDHhDgAAAECJCXcAAAAASky4AwAAAFBiJx7UpPlDsfa//5fmAAAAAMqj/X/+X5o72g493AEAAADg8GjLAgAAACgx4Q4AAABAiQl3AAAAAEpMuAMAAABQYsIdAAAAgBIT7gAAAACUmHAHAAAAoMSEOwAAAAAlJtwBAAAAKDHhDgAAAECJCXcAAAAASuzEg5o0f2T88ssv8cMPP8TPP/8cv/32W1oLu/Pcc8/FCy+8EC+99FI8//zzaS0AAAAcL0cu3MmCnf/85z/xhz/8Idra2uJ3v/td2gK78+uvv8b6+np8//338ec//1nAAwAAwLF05MKd//73v3m1xe9///u0Bvbnp59+yqvA/vSnP6U1AAAAcHwcuTF3si/hWcUOHJTs+ZQ9rwAAAOA4OnLhTjbGjlYsDlL2fDJ2EwAAAMeVs2UBAAAAlJhwBwAAAKDEhDsAAAAAJSbcAQAAACgx4Q4AAABAiQl3AAAAAEpMuAMAAABQYsIdAAAAgBIT7gAAAACU2DENd5bjWm9fdBWmK9PraRulcP9WXPF3AwAAgMc6nuHO4p1YGfkiFmZn0jQRldELgoISWfrXWMyleQAAAGB7xzPcOTMUH/W3pYVMZ/xtpDvmvpyLtbSGI2xxPC7dHYhqV1qm3FIVVqOK7tpiWg8AwKO1fI7qeu+W7zPAlk48qEnzR8I333wTr776alo6OGvTV6N/5e1YGOpMayKWxvvi0mRaqKlOzMTlM2lhcTy6BqfSQrP8ci/WXmgvfh1v3vggznekDZn8ehHXZ4fidL4iaxEbjM2b6Y6RG2/HysXiuoZsW21/P9b28cmpmP7wXLSnLY37k992bHPfuobz69zLHldMND3WbW33ONO+stvPj93ofH19TdNxyq3HzfcuxOhCWqypTkxEDD7iMRaPWZPseH0alRvvR4xdiK/e+qIlqNubw3pe8TjZc+OfEcPpb54/31Yf8xwAAGAr+feXnX7OB54pz8aAyvdvxT9GI0b+UngRrK27XSm0bk0MxOTg1bh5P23PDcT1jdauentXNW2Jjp54s2s+vvp3c6vX0sxURPWNerCTJ+2DTS1i0yOnahs64/LGcneWhKTt233hXY5rxQDmzFC6/Bcx0lUPW/LlYhi0U4/ZVx7sfPl6TOeXqU03hmNlsFh9kYUxF2L0lcZjqE21Y7n7x5jJgoDseL3vi/+x0RbnPyz8zc+8Uft/aD5WfkzLAADs2MlK7XM1wBaOb7hTLGHcqsKm41xcLlaE7PpLZ+1L6zsDLa1ey3F7snsjRMrHjalONFWetPcP7Tq4WBofjMnqcB6+PFnL8VkWig0XQqPacXu3GjE5s5wvrk1/GpNZlU/x14MzQy2VPTuzNF4PiQ6iUgcAAI6X9Zj9cj6qfap2gIcd33Cn41x81Kgkmc1afPqia7weSGxo6mHdqoXoMbJAaOHrmG1U+yzeicmu16M3D2/W49u7sf8X38XxuDQ5ENeHetKKHZoc3OzNrU17Gkz6/kqsxHyMXtzcTzYVW9nurcxHz1s9u68YapFVCF262xIScezkQWXXcPxtD+EfAMAzKWtrzz+HX4jR8DkK2Nqz0ZaVVdkMD0fP5KcbbVdZv2q9oqcRABVarnasM85WN1uzspas6jt7aI3aVr0dqzrRGL9nFzbaoGrTjeGI0Qt7HMi2tTUtTQcawmQVQvMRC2PRvxEi1cfwmavd767e8VhKl6S88gAvCyr30j4IAPCs2hhGoTa9s1r7vOyzMfCwZyTcaZW1T2X5x/4HdT39l+GIvDUr2+dAnN1I0tvij69sti/txWzejjWxpxanJvn4QGl+NzoqUYmpuP2IUCjr+93/Wcg2x+fZnOpjAPXk4xXtIdziSKkPyh0xcsPfEgBgz/KhJFbj26ZxQgGOZbiTDcrbmmbX1o1l49+8ncKck1Hpilj5brNVKW8XSfO7kgUn8XXMTt+JycZAykkW/PRMDja1RK1Nj7cM2ryNhbEYzduxDqBC5v5cfLXQHZUX0/KOZZVJWYdX8/EsPob2/rejmlXcFFveFsed7poNm8HO/sNUAIBnWX28y8YwEACbjmG40xa9b63GpY32nnqLT3ZK7c1WonqbVtaq1LjM7b69tGVlstur7Wp0tflsXJls3J/UEtW4nf4vT+34xXhP7VgNxTF3Lo7Vvlnv7QxUp4dm4np1qul49q+8UdhXVnVTO3bF2xuMQgUTz7bUctc6dtN7t/ZZ7QUA8AzYGG+nPuVnsdXiDmzhxIOaNH8kfPPNN/Hqq6+mpXLYOF24F9ojq4zPKwAAANiJZ3TMnYNUPyXhQZwxCgAAAGC3hDv7tfh5jC4MxLv9bWkFAAAAwJMj3Nmz5biW9b4OrjoDEAAAAPDUCHf2rHH6bmcAAgAAAJ4e4Q4AAABAiQl3AAAAAEpMuAMAAABQYsIdAAAAgBI7cuHOc889F7/++mtagv3Lnk/Z8woAAACOoyP3jfeFF16I9fX1tAT7lz2fsucVAAAAHEdHLtx56aWX4vvvv4+ffvpJBQ/7kj1/sudR9nzKnlcAAABwHJ14UJPmj4xffvklfvjhh/j555/jt99+S2thd7JWrKxiJwt2nn/++bQWAAAAjpcjGe4Ax8Pa9NXoH40YufFBnO9IKxfHo2twtXkdAAAAeybcAQ7V0nhfXLo7HNMfnov2WI5rvYMREzNx+Uy6AAAAAPviFELAoTo9NBHVhbH4bDELegZjsjpRCHaysOdq3LyfFmuyMOjKtEHVAQAAdkq4AxyyzvjbSHdMDvbFpcnuGPlLZ1oPAADAQRDuAIeuvf/tqGYz1beNswMAAHDAhDvAocvbsbKZycG4tpivAgAA4IAId4DDtTheb8e6MRPXq1m+Mx5LaRMAAAD7J9wBDtF63PxkaqMdKx9cOabi46YBk+dj5cf6XHbq9Et5iQ8AAAA7JdwBDs3S+IUYXRiI60ONQZQ74/LEQMyNXkjtWfXlbLDlrt6+6F95O6/uAQAAYOdOPKhJ8wAAAACUjModAAAAgBIT7gAAAACUmHAHAAAAoMSEOwAAAAAlJtwBAAAAKDHhDgAAAECJCXcAAAAASky4AwAAAFBiwh0AAACAEhPuAAAAAJSYcAcAAACgxIQ7wFOzNn01ut67FWtpObPVOgAAALYn3AEAAAAoMeEOcHju34orvX1xZXo9rYhYGu+Lrt7xWErLAAAA7I9wBzg8Hefio4mBmBv9Z9y8X1teHI9LkwNxfXYoTtcvAQAAwD4Jd4DDdWYopkciRv91K25+MhXVCcEOAADAQRLuAIeuvf/9GLk7FqOvTMTlM2klAAAAB0K4Axy6pfEL8dVbEzFyd7Bp/J32l0+luRavVKI9zQIAAPBowh3gcKVxdt7t74zzw8MRjfF3Mi+eip6Fr2O2sRzL8dnofFT7OtMyAAAAj3PiQU2aBzhYi+PRNZiNszOz0Y6VnS3r0mR3jNz4IM53bF6moWfki/iovy0tAQAA8DjCHQAAAIAS05YFAAAAUGLCHQAAAIASE+4AAAAAlJhwBwAAAKDEhDsAAAAAJSbcAQAAACgx4Q4AAABAiQl3AAAAAEpMuAMAAABQYsIdAAAAgBIT7gAAAACUmHAHAAAAoMSEO8DhuX8rrvT2Rdf4clpRszgeXe/dirV8YT1uvlfbnl2mMW1sO+qW41rt/l5bTIu5rdYBAAAcLuEOcMi6o+funVhKS83a4vyHM7EwW5+mR7rTegAAAHZKuAMcslPx5lur8fH0elo+QFkVUFOlTKoEalT/NFUJZbLKmqtx835afIyl8ayaaHwzmEqVSFcO5LG03NdM0+Opby9WAa1NX22uggIAAKgR7gCH7o/9b0fly7mDb7c6M5RX+0wO1gOYtel/xmgMx/SH56K9fol9OT30RYx0TcWlPFBZj5tjYxEjX8RH/W31C+xLVrU0EdWFsfhHHhYtx7XBqahOzMTlM/VLAAAA7IRwB3gCOuPsK2Px2SGMRdPe/0Fcr07Fx9O34rPRiJHhgwl26lIAM/lp3Jz+PA+O/n4gwU5DZ1y+MRwx+nlt/5/GZHVCsAMAAOyacAd4Ik7/ZThWZg6npej00ERURsdiZeT9ON+RVh6Yzrg8cSpGR1cPODhKOs7F30dWa/s/FdeHOtNKAACAnRPuAE9GR0+8effTuPldWj4w2dg0gxETWcBz4eDPVJWNs1Pb/fUs4LlYGH8nTkalK8026Y7Ki2l2JxbHo//L1+P6yGpcKs2ZwgAAgKNEuAM8IW1x/p1T8dWXq2k5sxzXNgYIXo/ZL+ej562eXVXHNMbZ+duZrMJmYGP8nQ0Lq3Evn6mHQJP5/E41xtn5a5w+M5S3f9XH38m0xR9fiZgsVCOtZa1VXa9H746rh9I4O++ci9P978dINMbf2bTyXVrOQqDR+fo8AABAgXAHeHLOvBGVhWJA0RmX++7kZ4jq6r0Qo69M7Gqw4uzsUf3FcXbO/LU+AHLjDFeNQCbtf+Wdiahm63ckC4Nq96kwzk7WWtYzObhxxqp8wOW7teV8/321+3Iqru94MOfszF2DhXF2svBrIOZGL6SzcdWWh7PxeC7U9/9Jbd9OFQ8AAGzhxIOaNA8AAABAyajcAQAAACgx4Q4AAABAiQl3AAAAAEpMuAMAAABQYsIdAAAAgBIT7gAAAACUmHAHAAAAoMSEOwAAAAClFfH/AYb/bSCIJwWPAAAAAElFTkSuQmCC;" vertex="1" parent="1">
                    <mxGeometry x="-290" y="-30" width="1223" height="632.36" as="geometry"/>
                </mxCell>
            </root>
        </mxGraphModel>
    </diagram>
</mxfile>